<svg width="40" height="40" viewBox="0 0 40 40" fill="none" xmlns="http://www.w3.org/2000/svg">
<path fill-rule="evenodd" clip-rule="evenodd" d="M11.1868 6.61671C17.0507 6.09261 22.9496 6.09261 28.8135 6.61671L31.3435 6.84338C32.5683 6.95274 33.7204 7.47184 34.6137 8.3168C35.5071 9.16177 36.0895 10.2832 36.2668 11.5C37.0898 17.1368 37.0898 22.8633 36.2668 28.5C36.0891 29.7165 35.5066 30.8376 34.6133 31.6823C33.72 32.5269 32.568 33.0458 31.3435 33.155L28.8135 33.3817C22.9496 33.9058 17.0507 33.9058 11.1868 33.3817L8.6568 33.155C7.43227 33.0458 6.28032 32.5269 5.387 31.6823C4.49368 30.8376 3.91114 29.7165 3.73347 28.5C2.91046 22.8633 2.91046 17.1368 3.73347 11.5C3.9108 10.2832 4.49318 9.16177 5.38654 8.3168C6.27989 7.47184 7.43203 6.95274 8.6568 6.84338L11.1868 6.61671ZM9.76014 11.4C9.56973 11.2974 9.35594 11.2458 9.13966 11.2505C8.92338 11.2552 8.71202 11.316 8.52626 11.4268C8.34049 11.5377 8.18667 11.6949 8.07984 11.883C7.97302 12.0711 7.91684 12.2837 7.9168 12.5V28.3334C7.91681 28.6649 8.0485 28.9828 8.28292 29.2173C8.51734 29.4517 8.83528 29.5834 9.16681 29.5834C9.49833 29.5834 9.81627 29.4517 10.0507 29.2173C10.2851 28.9828 10.4168 28.6649 10.4168 28.3334V14.5934L19.4068 19.4334C19.7768 19.6334 20.2235 19.6334 20.5935 19.4334L29.5835 14.5934V28.3334C29.5835 28.6649 29.7152 28.9828 29.9496 29.2173C30.184 29.4517 30.502 29.5834 30.8335 29.5834C31.165 29.5834 31.4829 29.4517 31.7174 29.2173C31.9518 28.9828 32.0835 28.6649 32.0835 28.3334V12.5C32.0834 12.2837 32.0273 12.0711 31.9204 11.883C31.8136 11.6949 31.6598 11.5377 31.474 11.4268C31.2883 11.316 31.0769 11.2552 30.8606 11.2505C30.6443 11.2458 30.4305 11.2974 30.2401 11.4L20.0001 16.9134L9.76014 11.4Z" fill="#FAFAEF"/>
</svg>
