<svg width="40" height="40" viewBox="0 0 40 40" fill="none" xmlns="http://www.w3.org/2000/svg">
<path d="M20.0002 3.3335C16.7038 3.3335 13.4815 4.31098 10.7407 6.14234C7.99985 7.97369 5.86364 10.5767 4.60218 13.6221C3.34072 16.6675 3.01066 20.0187 3.65375 23.2517C4.29684 26.4847 5.88418 29.4544 8.21506 31.7853C10.5459 34.1162 13.5156 35.7035 16.7487 36.3466C19.9817 36.9897 23.3328 36.6596 26.3782 35.3982C29.4237 34.1367 32.0266 32.0005 33.858 29.2597C35.6894 26.5188 36.6668 23.2965 36.6668 20.0002C36.6624 15.5812 34.9051 11.3446 31.7804 8.21992C28.6558 5.09527 24.4191 3.33791 20.0002 3.3335ZM29.8985 16.1885V17.2652C29.8985 17.3476 29.882 17.4291 29.85 17.5051C29.818 17.581 29.7711 17.6497 29.712 17.7072C29.653 17.7647 29.583 17.8098 29.5063 17.8398C29.4295 17.8698 29.3475 17.8841 29.2652 17.8818C27.5054 17.7575 25.8219 17.1149 24.4268 16.0352V23.9152C24.4264 24.7873 24.2523 25.6506 23.9147 26.4547C23.577 27.2588 23.0826 27.9876 22.4602 28.5985C21.8327 29.2254 21.0864 29.7208 20.265 30.0556C19.4437 30.3904 18.5638 30.558 17.6768 30.5485C15.8933 30.5459 14.1814 29.8461 12.9068 28.5985C12.0958 27.7808 11.5117 26.7661 11.2118 25.6542C10.912 24.5422 10.9068 23.3714 11.1968 22.2568C11.4618 21.1868 11.9968 20.2035 12.7518 19.4018C13.3149 18.7136 14.0246 18.16 14.8292 17.7814C15.6337 17.4027 16.5127 17.2087 17.4018 17.2135H18.7685V20.0518C18.7691 20.1343 18.7521 20.2159 18.7187 20.2912C18.6853 20.3666 18.6362 20.434 18.5747 20.4888C18.5132 20.5437 18.4407 20.5849 18.362 20.6095C18.2833 20.6342 18.2003 20.6418 18.1185 20.6318C17.325 20.3935 16.4699 20.4725 15.7336 20.8523C14.9972 21.2321 14.4371 21.883 14.1712 22.6677C13.9054 23.4525 13.9547 24.3098 14.3086 25.0589C14.6625 25.8081 15.2935 26.3905 16.0685 26.6835C16.5185 26.9418 17.0218 27.0935 17.5385 27.1285C17.9385 27.1452 18.3385 27.0952 18.7185 26.9752C19.3529 26.7611 19.9047 26.3545 20.2969 25.812C20.6892 25.2694 20.9024 24.618 20.9068 23.9485V9.59016C20.9068 9.43132 20.9698 9.27896 21.082 9.16649C21.1941 9.05401 21.3463 8.9906 21.5052 8.99016H23.8635C24.0167 8.99035 24.1641 9.04916 24.2753 9.15453C24.3866 9.25989 24.4533 9.40383 24.4618 9.55683C24.5478 10.2922 24.7814 11.0027 25.1485 11.6456C25.5157 12.2886 26.0088 12.8507 26.5985 13.2985C27.3953 13.8966 28.3417 14.2634 29.3335 14.3585C29.4821 14.3712 29.621 14.4373 29.7245 14.5445C29.8281 14.6518 29.8893 14.7929 29.8968 14.9418L29.8985 16.1885Z" fill="#FAFAEF"/>
</svg>
