<svg width="24" height="29" viewBox="0 0 24 29" fill="none" xmlns="http://www.w3.org/2000/svg">
<path d="M8.5 16.8C8.83152 16.8 9.14946 16.642 9.38388 16.3607C9.6183 16.0794 9.75 15.6979 9.75 15.3C9.75 14.9022 9.6183 14.5207 9.38388 14.2394C9.14946 13.9581 8.83152 13.8 8.5 13.8C8.16848 13.8 7.85054 13.9581 7.61612 14.2394C7.3817 14.5207 7.25 14.9022 7.25 15.3C7.25 15.6979 7.3817 16.0794 7.61612 16.3607C7.85054 16.642 8.16848 16.8 8.5 16.8ZM8.5 21C8.83152 21 9.14946 20.842 9.38388 20.5607C9.6183 20.2794 9.75 19.8979 9.75 19.5C9.75 19.1022 9.6183 18.7207 9.38388 18.4394C9.14946 18.1581 8.83152 18 8.5 18C8.16848 18 7.85054 18.1581 7.61612 18.4394C7.3817 18.7207 7.25 19.1022 7.25 19.5C7.25 19.8979 7.3817 20.2794 7.61612 20.5607C7.85054 20.842 8.16848 21 8.5 21ZM13.25 15.3C13.25 15.6979 13.1183 16.0794 12.8839 16.3607C12.6495 16.642 12.3315 16.8 12 16.8C11.6685 16.8 11.3505 16.642 11.1161 16.3607C10.8817 16.0794 10.75 15.6979 10.75 15.3C10.75 14.9022 10.8817 14.5207 11.1161 14.2394C11.3505 13.9581 11.6685 13.8 12 13.8C12.3315 13.8 12.6495 13.9581 12.8839 14.2394C13.1183 14.5207 13.25 14.9022 13.25 15.3ZM12 21C12.3315 21 12.6495 20.842 12.8839 20.5607C13.1183 20.2794 13.25 19.8979 13.25 19.5C13.25 19.1022 13.1183 18.7207 12.8839 18.4394C12.6495 18.1581 12.3315 18 12 18C11.6685 18 11.3505 18.1581 11.1161 18.4394C10.8817 18.7207 10.75 19.1022 10.75 19.5C10.75 19.8979 10.8817 20.2794 11.1161 20.5607C11.3505 20.842 11.6685 21 12 21ZM16.75 15.3C16.75 15.6979 16.6183 16.0794 16.3839 16.3607C16.1495 16.642 15.8315 16.8 15.5 16.8C15.1685 16.8 14.8505 16.642 14.6161 16.3607C14.3817 16.0794 14.25 15.6979 14.25 15.3C14.25 14.9022 14.3817 14.5207 14.6161 14.2394C14.8505 13.9581 15.1685 13.8 15.5 13.8C15.8315 13.8 16.1495 13.9581 16.3839 14.2394C16.6183 14.5207 16.75 14.9022 16.75 15.3Z" fill="black"/>
<path fill-rule="evenodd" clip-rule="evenodd" d="M8 3.8999C8.19891 3.8999 8.38968 3.99472 8.53033 4.16351C8.67098 4.33229 8.75 4.56121 8.75 4.7999V5.6999H15.25V4.7999C15.25 4.56121 15.329 4.33229 15.4697 4.16351C15.6103 3.99472 15.8011 3.8999 16 3.8999C16.1989 3.8999 16.3897 3.99472 16.5303 4.16351C16.671 4.33229 16.75 4.56121 16.75 4.7999V5.7095C16.902 5.7143 17.0437 5.7231 17.175 5.7359C17.555 5.7719 17.911 5.8535 18.248 6.0599C18.7656 6.37631 19.1863 6.88124 19.45 7.5023C19.622 7.9067 19.69 8.3339 19.72 8.7899C19.75 9.2279 19.75 9.7619 19.75 10.4039V19.5959C19.75 20.2379 19.75 20.7719 19.72 21.2099C19.69 21.6659 19.622 22.0931 19.45 22.4975C19.1866 23.1184 18.7662 23.6233 18.249 23.9399C17.911 24.1463 17.555 24.2279 17.175 24.2639C16.81 24.2999 16.365 24.2999 15.831 24.2999H8.17C7.635 24.2999 7.19 24.2999 6.825 24.2639C6.445 24.2279 6.089 24.1463 5.752 23.9399C5.23475 23.6241 4.81401 23.1201 4.55 22.4999C4.378 22.0943 4.31 21.6671 4.28 21.2111C4.25 20.7731 4.25 20.2391 4.25 19.5983V10.4039C4.25 9.7619 4.25 9.2279 4.28 8.7899C4.31 8.3339 4.378 7.9067 4.55 7.5023C4.81367 6.88124 5.23445 6.37631 5.752 6.0599C6.089 5.8535 6.445 5.7719 6.825 5.7359C6.95633 5.7231 7.098 5.7143 7.25 5.7095V4.7999C7.25 4.68171 7.2694 4.56468 7.30709 4.45549C7.34478 4.34629 7.40003 4.24708 7.46967 4.16351C7.53931 4.07993 7.62199 4.01364 7.71299 3.96841C7.80398 3.92318 7.90151 3.8999 8 3.8999ZM18.25 12.2999H5.75V19.5599C5.75 20.2463 5.75 20.7083 5.775 21.0623C5.798 21.4079 5.84 21.5723 5.886 21.6803C6.006 21.9635 6.197 22.1927 6.433 22.3367C6.523 22.3919 6.66 22.4423 6.947 22.4699C7.243 22.4987 7.627 22.4999 8.2 22.4999H15.8C16.372 22.4999 16.757 22.4999 17.052 22.4699C17.34 22.4423 17.477 22.3919 17.567 22.3367C17.8026 22.1928 17.9941 21.963 18.114 21.6803C18.16 21.5723 18.202 21.4079 18.225 21.0623C18.249 20.7083 18.25 20.2463 18.25 19.5599V12.2999ZM10.5 8.3999C10.3011 8.3999 10.1103 8.49472 9.96967 8.66351C9.82902 8.83229 9.75 9.06121 9.75 9.2999C9.75 9.5386 9.82902 9.76751 9.96967 9.9363C10.1103 10.1051 10.3011 10.1999 10.5 10.1999H13.5C13.6989 10.1999 13.8897 10.1051 14.0303 9.9363C14.171 9.76751 14.25 9.5386 14.25 9.2999C14.25 9.06121 14.171 8.83229 14.0303 8.66351C13.8897 8.49472 13.6989 8.3999 13.5 8.3999H10.5Z" fill="black"/>
</svg>
