<svg width="13" height="22" viewBox="0 0 13 22" fill="none" xmlns="http://www.w3.org/2000/svg">
<path d="M6.41667 10.45C5.80888 10.45 5.22598 10.1603 4.79621 9.64454C4.36644 9.12882 4.125 8.42935 4.125 7.7C4.125 6.97065 4.36644 6.27118 4.79621 5.75546C5.22598 5.23973 5.80888 4.95 6.41667 4.95C7.02445 4.95 7.60735 5.23973 8.03712 5.75546C8.46689 6.27118 8.70833 6.97065 8.70833 7.7C8.70833 8.06114 8.64906 8.41873 8.53389 8.75238C8.41872 9.08603 8.24992 9.38918 8.03712 9.64454C7.82432 9.89991 7.57169 10.1025 7.29365 10.2407C7.01561 10.3789 6.71761 10.45 6.41667 10.45ZM6.41667 0C4.71486 0 3.08276 0.811248 1.8794 2.25528C0.67604 3.69931 0 5.65783 0 7.7C0 13.475 6.41667 22 6.41667 22C6.41667 22 12.8333 13.475 12.8333 7.7C12.8333 5.65783 12.1573 3.69931 10.9539 2.25528C9.75058 0.811248 8.11847 0 6.41667 0Z" fill="black"/>
</svg>
