<svg width="68" height="69" viewBox="0 0 68 69" fill="none" xmlns="http://www.w3.org/2000/svg">
<g filter="url(#filter0_d_212_4260)">
<rect width="60" height="61" rx="16" transform="matrix(1 0 0 -1 4 61)" fill="#113FC8"/>
</g>
<path d="M17 14C17 12.8954 17.8954 12 19 12H33.5V28.5H17V14Z" fill="#FCFCF5"/>
<path d="M17 31.5V46C17 47.1046 17.8954 48 19 48H33.5V31.5H17Z" fill="#FCFCF5"/>
<path d="M36.5 31.5V48H51C52.1046 48 53 47.1046 53 46V31.5H36.5Z" fill="#FCFCF5"/>
<path d="M53 28.5V14C53 12.8954 52.1046 12 51 12H36.5V28.5H53Z" fill="#FCFCF5"/>
<defs>
<filter id="filter0_d_212_4260" x="0" y="0" width="68" height="69" filterUnits="userSpaceOnUse" color-interpolation-filters="sRGB">
<feFlood flood-opacity="0" result="BackgroundImageFix"/>
<feColorMatrix in="SourceAlpha" type="matrix" values="0 0 0 0 0 0 0 0 0 0 0 0 0 0 0 0 0 0 127 0" result="hardAlpha"/>
<feOffset dy="4"/>
<feGaussianBlur stdDeviation="2"/>
<feComposite in2="hardAlpha" operator="out"/>
<feColorMatrix type="matrix" values="0 0 0 0 0 0 0 0 0 0 0 0 0 0 0 0 0 0 0.25 0"/>
<feBlend mode="normal" in2="BackgroundImageFix" result="effect1_dropShadow_212_4260"/>
<feBlend mode="normal" in="SourceGraphic" in2="effect1_dropShadow_212_4260" result="shape"/>
</filter>
</defs>
</svg>
